<svg width="16" height="25" viewBox="0 0 16 25" fill="none" xmlns="http://www.w3.org/2000/svg">
<path d="M14.4201 15.7192H5.11537L5.58256 14.7676L13.3451 14.7536C13.6076 14.7536 13.8326 14.5661 13.8794 14.3067L14.9544 8.28951C14.9826 8.1317 14.9404 7.9692 14.8372 7.84576C14.7863 7.78501 14.7227 7.73608 14.6509 7.70235C14.5792 7.66863 14.5009 7.65092 14.4216 7.65045L4.54662 7.61764L4.46224 7.22076C4.40912 6.96764 4.18099 6.78326 3.92162 6.78326H1.50756C1.36127 6.78326 1.22098 6.84137 1.11754 6.94481C1.0141 7.04825 0.955994 7.18854 0.955994 7.33483C0.955994 7.48111 1.0141 7.6214 1.11754 7.72484C1.22098 7.82828 1.36127 7.88639 1.50756 7.88639H3.47474L3.84349 9.63951L4.75131 14.0348L3.58256 15.9426C3.52186 16.0246 3.4853 16.1218 3.47702 16.2234C3.46874 16.3251 3.48906 16.427 3.53568 16.5176C3.62943 16.7036 3.81849 16.8208 4.02787 16.8208H5.00912C4.79993 17.0986 4.68694 17.437 4.68724 17.7848C4.68724 18.6692 5.40599 19.388 6.29037 19.388C7.17474 19.388 7.89349 18.6692 7.89349 17.7848C7.89349 17.4364 7.77787 17.0973 7.57162 16.8208H10.0888C9.87962 17.0986 9.76662 17.437 9.76693 17.7848C9.76693 18.6692 10.4857 19.388 11.3701 19.388C12.2544 19.388 12.9732 18.6692 12.9732 17.7848C12.9732 17.4364 12.8576 17.0973 12.6513 16.8208H14.4216C14.7247 16.8208 14.9732 16.5739 14.9732 16.2692C14.9723 16.1231 14.9136 15.9832 14.81 15.8802C14.7064 15.7772 14.5662 15.7193 14.4201 15.7192V15.7192ZM4.77631 8.70514L13.7732 8.73483L12.8919 13.6692L5.82474 13.6817L4.77631 8.70514ZM6.29037 18.2786C6.01849 18.2786 5.79662 18.0567 5.79662 17.7848C5.79662 17.513 6.01849 17.2911 6.29037 17.2911C6.56224 17.2911 6.78412 17.513 6.78412 17.7848C6.78412 17.9158 6.7321 18.0414 6.6395 18.134C6.54691 18.2266 6.42132 18.2786 6.29037 18.2786V18.2786ZM11.3701 18.2786C11.0982 18.2786 10.8763 18.0567 10.8763 17.7848C10.8763 17.513 11.0982 17.2911 11.3701 17.2911C11.6419 17.2911 11.8638 17.513 11.8638 17.7848C11.8638 17.9158 11.8118 18.0414 11.7192 18.134C11.6266 18.2266 11.501 18.2786 11.3701 18.2786V18.2786Z" fill="white"/>
</svg>
